<svg width="100" height="100" viewBox="0 0 100 100" fill="none" xmlns="http://www.w3.org/2000/svg">
<path d="M91 12.366V49.4987C91 72.1836 72.7925 90.6191 50.1931 90.9896C49.9625 91 49.7293 91 49.4987 91C47.0579 91 44.6689 90.7927 42.3447 90.3833C25.1918 87.401 11.6482 73.8833 8.62963 56.7408C8.21765 54.3881 8 51.9654 8 49.4987V12.366C8 9.95367 9.95367 8 12.366 8H86.634C89.0463 8 91 9.95367 91 12.366Z" fill="#4603A6"/>
<path d="M91 12.366V49.4987C91 72.1836 72.7925 90.6191 50.1931 90.9896C49.9625 91 49.7293 91 49.4987 91C47.0579 91 44.6689 90.7927 42.3447 90.3833C25.1918 87.401 11.6482 73.8833 8.62963 56.7408C8.21765 54.3881 8 51.9654 8 49.4987V12.366C8 9.95367 9.95367 8 12.366 8H86.634C89.0463 8 91 9.95367 91 12.366Z" fill="url(#paint0_linear_2033_425)"/>
<mask id="mask0_2033_425" style="mask-type:alpha" maskUnits="userSpaceOnUse" x="8" y="8" width="83" height="83">
<path d="M91 12.366V49.4987C91 72.1836 72.7925 90.6191 50.1931 90.9896C49.9625 91 49.7293 91 49.4987 91C47.0579 91 44.6689 90.7927 42.3447 90.3833C25.1918 87.401 11.6482 73.8833 8.62963 56.7408C8.21765 54.3881 8 51.9654 8 49.4987V12.366C8 9.95367 9.95367 8 12.366 8H86.634C89.0463 8 91 9.95367 91 12.366Z" fill="url(#paint1_linear_2033_425)"/>
</mask>
<g mask="url(#mask0_2033_425)">
<path d="M73.3537 62.7432C74.4143 64.5881 74.9224 66.7982 74.6683 69.1321C74.0809 74.5526 69.2796 78.6425 63.8306 78.4457C63.386 78.4298 62.9478 78.3853 62.5191 78.3155H62.5128C61.4077 78.1281 60.363 77.7757 59.3977 77.2771V77.2708L44.3874 72.2695L39.3988 70.6055L39.3925 70.5992C33.5528 69.2655 29.193 64.0324 29.193 57.7895C29.193 55.7477 29.6598 53.817 30.4917 52.0928C24.3821 58.3928 30.4917 72.2695 39.3988 72.9998C38.9245 81.3403 41.4011 97.6251 49.3189 100.289C28.2975 96.6345 11.6995 80.0683 8.00015 59.0597C11.509 42.1029 26.5224 29.3567 44.5176 29.3567C44.9653 29.3567 44.9018 32.6496 45.3527 32.6719C45.3527 32.6719 51.5893 30.0267 51.5829 30.0267H51.5893L78.6948 17.0932L63.2431 34.3897L62.9923 34.6724L56.3524 42.106L67.857 56.0652L71.0928 59.9869V59.9932C71.9883 60.7649 72.7567 61.6953 73.3505 62.7273V62.7336L73.3537 62.7432Z" fill="white"/>
<mask id="mask1_2033_425" style="mask-type:alpha" maskUnits="userSpaceOnUse" x="8" y="17" width="71" height="84">
<path d="M73.3535 62.7429C74.4141 64.5878 74.9222 66.7979 74.6681 69.1318C74.0807 74.5523 69.2794 78.6423 63.8304 78.4454C63.3858 78.4295 62.9476 78.385 62.5189 78.3152H62.5126C61.4075 78.1278 60.3628 77.7754 59.3975 77.2768V77.2705L44.3872 72.2692L39.3986 70.6052L39.3923 70.5989C33.5527 69.2652 29.1928 64.0321 29.1928 57.7892C29.1928 55.7474 29.6596 53.8167 30.4915 52.0925C24.382 58.3926 30.4915 72.2692 39.3986 72.9995C38.9243 81.34 41.401 97.6248 49.3187 100.289C28.2973 96.6342 11.6993 80.068 7.99997 59.0594C11.5088 42.1026 26.5223 29.3564 44.5174 29.3564C44.9652 29.3564 44.9016 32.6493 45.3525 32.6716C45.3525 32.6716 51.5891 30.0264 51.5828 30.0264H51.5891L78.6946 17.0929L63.2429 34.3895L62.9921 34.6721L56.3523 42.1058L67.8568 56.0649L71.0926 59.9866V59.9929C71.9881 60.7646 72.7565 61.695 73.3503 62.727V62.7333L73.3535 62.7429Z" fill="white"/>
</mask>
<g mask="url(#mask1_2033_425)">
<path d="M49.3217 100.308L39.4779 72.8407L31.2218 66.9662L28.3639 57.7574L30.1104 52.518C23.0367 59.4794 21.3779 92.5284 49.3217 100.308Z" fill="#C8CEF3"/>
</g>
</g>
<defs>
<linearGradient id="paint0_linear_2033_425" x1="93.6824" y1="7.99999" x2="18.8414" y2="78.2945" gradientUnits="userSpaceOnUse">
<stop stop-color="#FDD801"/>
<stop offset="0.129808" stop-color="#FA6B28"/>
<stop offset="0.341346" stop-color="#891FB7"/>
<stop offset="0.692308" stop-color="#4701AC"/>
</linearGradient>
<linearGradient id="paint1_linear_2033_425" x1="89.8988" y1="1.78142" x2="9.26185" y2="76.192" gradientUnits="userSpaceOnUse">
<stop stop-color="#6D45B2"/>
<stop offset="0.05" stop-color="#6D45B2"/>
<stop offset="0.12" stop-color="#6D45B2"/>
<stop offset="0.19" stop-color="#6D45B2"/>
<stop offset="0.26" stop-color="#6D45B2"/>
<stop offset="0.33" stop-color="#6D45B2"/>
<stop offset="0.4" stop-color="#6D45B2"/>
<stop offset="1" stop-color="#5433FF"/>
</linearGradient>
</defs>
</svg>
