<svg width="4259" height="718" viewBox="0 0 4259 718" fill="none" xmlns="http://www.w3.org/2000/svg">
<path d="M716.118 38.5774V358.956C716.118 554.679 559.025 713.74 364.039 716.936C362.049 717.026 360.037 717.026 358.048 717.026C336.989 717.026 316.377 715.237 296.324 711.705C148.33 685.974 31.4767 569.345 5.43242 421.44C1.87787 401.141 0 380.238 0 358.956V38.5774C0 17.7643 16.8561 0.908203 37.6692 0.908203H678.448C699.261 0.908203 716.118 17.7643 716.118 38.5774Z" fill="white"/>
<mask id="mask0_80_183" style="mask-type:alpha" maskUnits="userSpaceOnUse" x="0" y="0" width="717" height="718">
<path d="M716.118 38.5774V358.956C716.118 554.679 559.025 713.74 364.039 716.936C362.049 717.026 360.037 717.026 358.048 717.026C336.989 717.026 316.377 715.237 296.324 711.705C148.33 685.974 31.4767 569.345 5.43242 421.44C1.87787 401.141 0 380.238 0 358.956V38.5774C0 17.7643 16.8561 0.908203 37.6692 0.908203H678.448C699.261 0.908203 716.118 17.7643 716.118 38.5774Z" fill="url(#paint0_linear_80_183)"/>
</mask>
<g mask="url(#mask0_80_183)">
<path d="M563.863 473.226C573.014 489.144 577.398 508.212 575.206 528.349C570.137 575.117 528.713 610.405 481.699 608.706C477.863 608.569 474.082 608.185 470.384 607.583H470.329C460.794 605.966 451.781 602.925 443.452 598.624V598.569L313.945 555.418L270.903 541.062L270.848 541.007C220.465 529.5 182.848 484.349 182.848 430.486C182.848 412.87 186.876 396.212 194.054 381.335C141.341 435.692 194.054 555.418 270.903 561.72C266.811 633.681 288.179 774.185 356.493 797.172C175.122 765.638 31.916 622.706 -0.00195312 441.445C30.2721 295.143 159.807 185.17 315.068 185.17C318.931 185.17 318.383 213.581 322.273 213.773C322.273 213.773 376.082 190.951 376.027 190.951H376.082L609.946 79.3613L476.63 228.595L474.466 231.033L417.178 295.17L516.439 415.609L544.356 449.445V449.5C552.083 456.157 558.713 464.185 563.836 473.089V473.144L563.863 473.226Z" fill="url(#paint1_linear_80_183)"/>
<mask id="mask1_80_183" style="mask-type:alpha" maskUnits="userSpaceOnUse" x="-1" y="79" width="611" height="719">
<path d="M563.864 473.224C573.015 489.142 577.399 508.211 575.207 528.348C570.138 575.115 528.714 610.403 481.7 608.704C477.864 608.567 474.083 608.184 470.384 607.581H470.33C460.795 605.964 451.782 602.923 443.453 598.622V598.567L313.945 555.416L270.904 541.06L270.849 541.005C220.466 529.498 182.849 484.348 182.849 430.484C182.849 412.868 186.877 396.21 194.055 381.333C141.342 435.69 194.055 555.416 270.904 561.718C266.812 633.679 288.18 774.183 356.494 797.171C175.123 765.636 31.917 622.704 -0.000976562 441.443C30.2731 295.141 159.808 185.168 315.069 185.168C318.932 185.168 318.384 213.579 322.274 213.771C322.274 213.771 376.083 190.949 376.028 190.949H376.083L609.947 79.3596L476.631 228.593L474.467 231.031L417.179 295.169L516.439 415.608L544.357 449.443V449.498C552.083 456.156 558.714 464.183 563.837 473.087V473.142L563.864 473.224Z" fill="white"/>
</mask>
<g mask="url(#mask1_80_183)">
<path d="M356.52 797.335L271.588 560.348L200.355 509.663L175.697 430.211L190.765 385.005C129.734 445.067 115.423 730.212 356.52 797.335Z" fill="#350082"/>
</g>
</g>
<path d="M1203.73 168.275H1273.83V549.967H1203.73V439.7C1199.11 458.511 1192.47 475.36 1183.82 490.246C1175.16 505.133 1164.78 517.77 1152.66 528.156C1140.54 538.542 1126.87 546.505 1111.64 552.044C1096.4 557.584 1079.9 560.353 1062.13 560.353C1040.32 560.353 1020.81 556.256 1003.62 548.063C986.425 539.754 971.826 527.925 959.824 512.577C947.938 497.113 938.821 478.36 932.474 456.318C926.242 434.277 923.127 409.407 923.127 381.711V168.275H993.233V381.711C993.233 419.909 1001.37 448.702 1017.64 468.089C1033.91 487.361 1058.44 496.998 1091.21 496.998C1108.87 496.998 1124.62 494.286 1138.47 488.862C1152.43 483.322 1164.2 475.36 1173.78 464.973C1183.47 454.472 1190.86 441.662 1195.94 426.545C1201.13 411.312 1203.73 394.059 1203.73 374.787V168.275ZM1399.32 549.967H1329.22V168.275H1399.32V278.542C1403.94 259.731 1410.57 242.882 1419.23 227.995C1427.88 213.109 1438.27 200.472 1450.39 190.086C1462.5 179.7 1476.18 171.737 1491.41 166.198C1506.76 160.658 1523.32 157.889 1541.09 157.889C1562.79 157.889 1582.23 161.985 1599.43 170.179C1616.62 178.373 1631.16 190.201 1643.05 205.665C1655.05 221.014 1664.17 239.766 1670.4 261.924C1676.75 283.965 1679.92 308.835 1679.92 336.531V549.967H1609.82V336.531C1609.82 298.218 1601.68 269.425 1585.41 250.153C1569.14 230.88 1544.61 221.244 1511.84 221.244C1494.18 221.244 1478.37 224.014 1464.41 229.553C1450.56 234.977 1438.79 242.94 1429.1 253.442C1419.52 263.828 1412.13 276.637 1406.94 291.87C1401.86 306.988 1399.32 324.183 1399.32 343.455V549.967ZM1805.41 124.134H1731.84V37.5821H1805.41V124.134ZM1803.68 549.967H1733.57V168.275H1803.68V549.967ZM1920.79 359.034C1920.79 380.384 1923.45 399.598 1928.76 416.678C1934.18 433.642 1941.91 448.125 1951.95 460.127C1962.11 472.013 1974.4 481.13 1988.82 487.477C2003.25 493.824 2019.46 496.998 2037.47 496.998C2053.28 496.998 2067.24 494.632 2079.36 489.9C2091.47 485.169 2101.92 478.706 2110.69 470.513C2119.46 462.204 2126.56 452.568 2131.98 441.605C2137.4 430.526 2141.27 418.697 2143.58 406.118H2213.69C2211.84 420.544 2208.55 434.392 2203.82 447.663C2199.09 460.934 2193.03 473.282 2185.64 484.707C2178.26 496.132 2169.54 506.518 2159.5 515.866C2149.58 525.098 2138.39 533.061 2125.92 539.754C2113.46 546.332 2099.84 551.41 2085.07 554.987C2070.3 558.564 2054.37 560.353 2037.29 560.353C2018.71 560.353 2001.17 558.161 1984.67 553.775C1968.17 549.505 1952.99 543.274 1939.14 535.08C1925.41 526.771 1913.06 516.731 1902.1 504.96C1891.14 493.189 1881.85 479.86 1874.23 464.973C1866.61 449.971 1860.79 433.584 1856.75 415.812C1852.71 398.04 1850.69 379.114 1850.69 359.034C1850.69 338.954 1852.71 320.029 1856.75 302.257C1860.79 284.485 1866.61 268.155 1874.23 253.268C1881.85 238.382 1891.14 225.053 1902.1 213.282C1913.06 201.395 1925.41 191.355 1939.14 183.162C1952.99 174.968 1968.17 168.737 1984.67 164.467C2001.17 160.081 2018.71 157.889 2037.29 157.889C2054.37 157.889 2070.3 159.677 2085.07 163.255C2099.96 166.832 2113.63 171.968 2126.1 178.661C2138.56 185.239 2149.75 193.202 2159.68 202.549C2169.72 211.781 2178.37 222.11 2185.64 233.535C2193.03 244.96 2199.09 257.308 2203.82 270.579C2208.55 283.85 2211.84 297.698 2213.69 312.123H2143.58C2141.27 299.545 2137.4 287.774 2131.98 276.81C2126.67 265.732 2119.63 256.096 2110.86 247.902C2102.09 239.593 2091.59 233.073 2079.36 228.342C2067.24 223.61 2053.28 221.244 2037.47 221.244C2019.46 221.244 2003.25 224.418 1988.82 230.765C1974.4 237.112 1962.11 246.229 1951.95 258.115C1941.91 270.002 1934.18 284.485 1928.76 301.564C1923.45 318.528 1920.79 337.685 1920.79 359.034ZM2251.67 359.034C2251.67 338.954 2253.68 320.029 2257.72 302.257C2261.76 284.485 2267.59 268.155 2275.21 253.268C2282.82 238.382 2292.11 225.053 2303.08 213.282C2314.04 201.395 2326.39 191.355 2340.12 183.162C2353.97 174.968 2369.14 168.737 2385.65 164.467C2402.15 160.081 2419.69 157.889 2438.27 157.889C2456.97 157.889 2474.51 160.081 2490.89 164.467C2507.4 168.737 2522.51 174.968 2536.25 183.162C2550.09 191.355 2562.5 201.395 2573.46 213.282C2584.43 225.053 2593.72 238.382 2601.33 253.268C2608.95 268.155 2614.78 284.485 2618.82 302.257C2622.86 320.029 2624.88 338.954 2624.88 359.034C2624.88 379.114 2622.86 398.04 2618.82 415.812C2614.78 433.584 2608.95 449.971 2601.33 464.973C2593.72 479.86 2584.43 493.189 2573.46 504.96C2562.5 516.731 2550.09 526.771 2536.25 535.08C2522.51 543.274 2507.4 549.505 2490.89 553.775C2474.51 558.161 2456.97 560.353 2438.27 560.353C2419.69 560.353 2402.15 558.161 2385.65 553.775C2369.14 549.505 2353.97 543.274 2340.12 535.08C2326.39 526.771 2314.04 516.731 2303.08 504.96C2292.11 493.189 2282.82 479.86 2275.21 464.973C2267.59 449.971 2261.76 433.584 2257.72 415.812C2253.68 398.04 2251.67 379.114 2251.67 359.034ZM2321.77 359.034C2321.77 380.384 2324.43 399.598 2329.73 416.678C2335.16 433.642 2342.89 448.125 2352.93 460.127C2363.09 472.013 2375.38 481.13 2389.8 487.477C2404.23 493.824 2420.44 496.998 2438.44 496.998C2456.45 496.998 2472.6 493.824 2486.91 487.477C2501.34 481.13 2513.57 472.013 2523.61 460.127C2533.65 448.125 2541.32 433.642 2546.63 416.678C2552.06 399.598 2554.77 380.384 2554.77 359.034C2554.77 337.685 2552.06 318.528 2546.63 301.564C2541.32 284.485 2533.65 270.002 2523.61 258.115C2513.57 246.229 2501.34 237.112 2486.91 230.765C2472.6 224.418 2456.45 221.244 2438.44 221.244C2420.44 221.244 2404.23 224.418 2389.8 230.765C2375.38 237.112 2363.09 246.229 2352.93 258.115C2342.89 270.002 2335.16 284.485 2329.73 301.564C2324.43 318.528 2321.77 337.685 2321.77 359.034ZM2741.55 549.967H2671.44V168.275H2741.55V290.139C2746.05 271.098 2752.45 254.076 2760.76 239.074C2769.19 223.956 2779.57 211.147 2791.92 200.645C2804.27 190.144 2818.52 182.123 2834.68 176.584C2850.95 171.045 2869.18 168.275 2889.38 168.275H2906.86V235.093H2889.55C2861.62 235.093 2838.2 237.689 2819.27 242.882C2800.34 247.96 2785.11 255.692 2773.57 266.078C2762.15 276.464 2753.95 289.562 2748.99 305.372C2744.03 321.067 2741.55 339.531 2741.55 360.765V549.967ZM3022.84 549.967H2952.73V168.275H3022.84V278.542C3027.46 259.731 3034.09 242.882 3042.75 227.995C3051.4 213.109 3061.79 200.472 3073.9 190.086C3086.02 179.7 3099.7 171.737 3114.93 166.198C3130.28 160.658 3146.84 157.889 3164.61 157.889C3186.31 157.889 3205.75 161.985 3222.95 170.179C3240.14 178.373 3254.68 190.201 3266.57 205.665C3278.57 221.014 3287.69 239.766 3293.92 261.924C3300.27 283.965 3303.44 308.835 3303.44 336.531V549.967H3233.33V336.531C3233.33 298.218 3225.2 269.425 3208.92 250.153C3192.65 230.88 3168.13 221.244 3135.36 221.244C3117.7 221.244 3101.89 224.014 3087.93 229.553C3074.08 234.977 3062.31 242.94 3052.61 253.442C3043.03 263.828 3035.65 276.637 3030.46 291.87C3025.38 306.988 3022.84 324.183 3022.84 343.455V549.967ZM3428.93 124.134H3355.36V37.5821H3428.93V124.134ZM3427.2 549.967H3357.09V168.275H3427.2V549.967ZM3527 227.13H3469.01V168.275H3527V159.62C3527 136.078 3529.94 115.305 3535.83 97.3027C3541.72 79.2999 3550.37 64.24 3561.8 52.1227C3573.34 39.8901 3587.59 30.658 3604.55 24.4263C3621.52 18.1946 3641.13 15.0787 3663.41 15.0787C3682.56 15.0787 3703.11 17.329 3725.03 21.8297V82.4158C3704.84 78.2613 3687.58 76.1841 3673.27 76.1841C3646.5 76.1841 3626.54 83.1082 3613.38 96.9564C3600.22 110.805 3593.65 131.692 3593.65 159.62V168.275H3725.2V227.13H3597.11V549.967H3527V227.13ZM4137.64 168.275L3979.6 574.028C3971.63 594.339 3962.34 611.88 3951.73 626.652C3941.22 641.423 3929.11 653.598 3915.37 663.176C3901.76 672.87 3886.47 680.025 3869.5 684.641C3852.65 689.257 3833.9 691.565 3813.24 691.565C3807.59 691.565 3802.11 691.392 3796.8 691.046C3791.49 690.7 3786.36 690.238 3781.39 689.661V628.383C3787.51 629.191 3793.16 629.768 3798.36 630.114C3803.67 630.46 3808.74 630.633 3813.59 630.633C3836.67 630.633 3855.48 626.132 3870.02 617.131C3884.56 608.13 3895.47 593.762 3902.74 574.028L3907.58 561.219L3756.12 168.275H3828.82L3947.05 486.092L4066.67 168.275H4137.64ZM4228.1 549.967H4139.81V456.491H4228.1V549.967Z" fill="white"/>
<defs>
<linearGradient id="paint0_linear_80_183" x1="706.616" y1="-52.7453" x2="10.8872" y2="589.263" gradientUnits="userSpaceOnUse">
<stop stop-color="#6D45B2"/>
<stop offset="0.05" stop-color="#6D45B2"/>
<stop offset="0.12" stop-color="#6D45B2"/>
<stop offset="0.19" stop-color="#6D45B2"/>
<stop offset="0.26" stop-color="#6D45B2"/>
<stop offset="0.33" stop-color="#6D45B2"/>
<stop offset="0.4" stop-color="#6D45B2"/>
<stop offset="1" stop-color="#5433FF"/>
</linearGradient>
<linearGradient id="paint1_linear_80_183" x1="629.658" y1="79.3613" x2="-2.71539" y2="584.067" gradientUnits="userSpaceOnUse">
<stop stop-color="#FDD801"/>
<stop offset="0.129808" stop-color="#FA6B28"/>
<stop offset="0.341346" stop-color="#891FB7"/>
<stop offset="0.692308" stop-color="#4701AC"/>
</linearGradient>
</defs>
</svg>
