<svg width="4264" height="717" viewBox="0 0 4264 717" fill="none" xmlns="http://www.w3.org/2000/svg">
<g filter="url(#filter0_n_80_247)">
<path d="M716.954 37.7132V358.466C716.954 554.418 559.678 713.664 364.464 716.865C362.472 716.954 360.458 716.954 358.466 716.954C337.382 716.954 316.746 715.164 296.67 711.627C148.503 685.866 31.5135 569.1 5.43876 421.023C1.88007 400.7 0 379.773 0 358.466V37.7132C0 16.8758 16.8758 0 37.7132 0H679.241C700.078 0 716.954 16.8758 716.954 37.7132Z" fill="url(#paint0_linear_80_247)"/>
</g>
<mask id="mask0_80_247" style="mask-type:alpha" maskUnits="userSpaceOnUse" x="0" y="0" width="717" height="717">
<path d="M716.954 37.7132V358.466C716.954 554.418 559.678 713.664 364.464 716.865C362.472 716.954 360.458 716.954 358.466 716.954C337.382 716.954 316.746 715.164 296.67 711.627C148.503 685.866 31.5135 569.1 5.43876 421.023C1.88007 400.7 0 379.773 0 358.466V37.7132C0 16.8758 16.8758 0 37.7132 0H679.241C700.078 0 716.954 16.8758 716.954 37.7132Z" fill="url(#paint1_linear_80_247)"/>
</mask>
<g mask="url(#mask0_80_247)">
<path d="M564.526 472.869C573.687 488.806 578.076 507.896 575.882 528.057C570.807 574.879 529.334 610.208 482.265 608.507C478.425 608.37 474.64 607.986 470.937 607.383H470.882C461.337 605.764 452.312 602.72 443.974 598.413V598.358L314.315 555.157L271.224 540.784L271.169 540.729C220.726 529.209 183.066 484.005 183.066 430.079C183.066 412.442 187.098 395.765 194.284 380.871C141.51 435.291 194.284 555.157 271.224 561.466C267.126 633.511 288.52 774.179 356.913 797.194C175.331 765.623 31.9572 622.524 0.00195312 441.051C30.3114 294.578 159.997 184.477 315.44 184.477C319.307 184.477 318.758 212.921 322.653 213.113C322.653 213.113 376.525 190.264 376.47 190.264H376.525L610.662 78.5446L477.191 227.952L475.024 230.394L417.669 294.606L517.046 415.185L544.996 449.06V449.115C552.731 455.781 559.369 463.817 564.498 472.732V472.787L564.526 472.869Z" fill="white"/>
<mask id="mask1_80_247" style="mask-type:alpha" maskUnits="userSpaceOnUse" x="0" y="78" width="611" height="720">
<path d="M564.524 472.868C573.685 488.805 578.074 507.896 575.88 528.056C570.805 574.878 529.332 610.207 482.263 608.507C478.423 608.37 474.638 607.986 470.935 607.382H470.88C461.335 605.764 452.31 602.719 443.972 598.413V598.358L314.313 555.157L271.222 540.784L271.167 540.729C220.724 529.208 183.064 484.005 183.064 430.079C183.064 412.442 187.096 395.764 194.282 380.87C141.508 435.29 194.282 555.157 271.222 561.465C267.124 633.511 288.518 774.179 356.911 797.193C175.329 765.622 31.9552 622.523 0 441.05C30.3095 294.578 159.996 184.476 315.438 184.476C319.305 184.476 318.756 212.92 322.651 213.112C322.651 213.112 376.523 190.264 376.468 190.264H376.523L610.66 78.5438L477.189 227.952L475.022 230.393L417.667 294.605L517.044 415.184L544.994 449.06V449.115C552.729 455.78 559.367 463.817 564.496 472.731V472.786L564.524 472.868Z" fill="white"/>
</mask>
<g mask="url(#mask1_80_247)">
<path d="M356.938 797.358L271.906 560.094L200.59 509.35L175.904 429.805L190.99 384.546C129.888 444.678 115.559 730.156 356.938 797.358Z" fill="#C8CEF3"/>
</g>
</g>
<path d="M1205.13 167.339H1275.32V549.477H1205.13V439.082C1200.51 457.914 1193.87 474.783 1185.2 489.687C1176.54 504.591 1166.14 517.242 1154.01 527.641C1141.88 538.039 1128.18 546.011 1112.93 551.557C1097.68 557.102 1081.16 559.875 1063.37 559.875C1041.53 559.875 1022.01 555.774 1004.79 547.571C987.577 539.252 972.961 527.41 960.945 512.043C949.045 496.561 939.918 477.786 933.563 455.719C927.324 433.651 924.205 408.753 924.205 381.024V167.339H994.393V381.024C994.393 419.267 1002.54 448.094 1018.83 467.504C1035.12 486.798 1059.67 496.446 1092.48 496.446C1110.16 496.446 1125.93 493.731 1139.8 488.3C1153.78 482.755 1165.56 474.783 1175.15 464.384C1184.86 453.87 1192.25 441.046 1197.33 425.91C1202.53 410.66 1205.13 393.387 1205.13 374.092V167.339ZM1400.96 549.477H1330.77V167.339H1400.96V277.734C1405.58 258.902 1412.22 242.034 1420.89 227.129C1429.55 212.225 1439.95 199.574 1452.08 189.176C1464.21 178.777 1477.9 170.805 1493.15 165.259C1508.52 159.714 1525.1 156.941 1542.89 156.941C1564.61 156.941 1584.08 161.042 1601.3 169.245C1618.51 177.449 1633.07 189.291 1644.97 204.773C1656.99 220.139 1666.11 238.914 1672.35 261.097C1678.71 283.165 1681.88 308.063 1681.88 335.792V549.477H1611.7V335.792C1611.7 297.434 1603.55 268.607 1587.26 249.312C1570.97 230.018 1546.42 220.37 1513.6 220.37C1495.93 220.37 1480.1 223.143 1466.12 228.689C1452.25 234.119 1440.47 242.091 1430.77 252.605C1421.18 263.004 1413.78 275.828 1408.58 291.079C1403.5 306.214 1400.96 323.429 1400.96 342.724V549.477ZM1807.52 123.146H1733.86V36.4937H1807.52V123.146ZM1805.79 549.477H1735.6V167.339H1805.79V549.477ZM1923.04 358.321C1923.04 379.696 1925.7 398.933 1931.01 416.032C1936.44 433.016 1944.18 447.516 1954.23 459.532C1964.4 471.432 1976.71 480.559 1991.15 486.914C2005.59 493.268 2021.82 496.446 2039.85 496.446C2055.67 496.446 2069.65 494.077 2081.79 489.34C2093.92 484.603 2104.37 478.133 2113.15 469.93C2121.94 461.611 2129.04 451.964 2134.47 440.988C2139.9 429.896 2143.77 418.054 2146.08 405.46H2216.27C2214.42 419.903 2211.13 433.767 2206.39 447.054C2201.66 460.34 2195.59 472.703 2188.2 484.141C2180.8 495.579 2172.08 505.977 2162.03 515.336C2152.09 524.579 2140.88 532.551 2128.41 539.252C2115.93 545.838 2102.29 550.921 2087.51 554.503C2072.72 558.085 2056.77 559.875 2039.67 559.875C2021.07 559.875 2003.51 557.68 1986.99 553.29C1970.47 549.015 1955.27 542.776 1941.41 534.573C1927.66 526.254 1915.3 516.202 1904.32 504.418C1893.35 492.633 1884.04 479.288 1876.42 464.384C1868.79 449.364 1862.96 432.958 1858.92 415.166C1854.87 397.373 1852.85 378.425 1852.85 358.321C1852.85 338.218 1854.87 319.27 1858.92 301.477C1862.96 283.685 1868.79 267.336 1876.42 252.432C1884.04 237.528 1893.35 224.183 1904.32 212.398C1915.3 200.498 1927.66 190.446 1941.41 182.243C1955.27 174.04 1970.47 167.801 1986.99 163.526C2003.51 159.136 2021.07 156.941 2039.67 156.941C2056.77 156.941 2072.72 158.732 2087.51 162.313C2102.41 165.895 2116.1 171.036 2128.58 177.737C2141.06 184.323 2152.26 192.295 2162.2 201.653C2172.25 210.896 2180.92 221.237 2188.2 232.675C2195.59 244.113 2201.66 256.476 2206.39 269.762C2211.13 283.049 2214.42 296.914 2216.27 311.356H2146.08C2143.77 298.762 2139.9 286.977 2134.47 276.001C2129.16 264.91 2122.11 255.263 2113.33 247.059C2104.55 238.741 2094.03 232.213 2081.79 227.476C2069.65 222.739 2055.67 220.37 2039.85 220.37C2021.82 220.37 2005.59 223.548 1991.15 229.902C1976.71 236.257 1964.4 245.384 1954.23 257.284C1944.18 269.185 1936.44 283.685 1931.01 300.784C1925.7 317.768 1923.04 336.947 1923.04 358.321ZM2254.3 358.321C2254.3 338.218 2256.32 319.27 2260.36 301.477C2264.4 283.685 2270.24 267.336 2277.86 252.432C2285.49 237.528 2294.79 224.183 2305.77 212.398C2316.74 200.498 2329.11 190.446 2342.85 182.243C2356.72 174.04 2371.91 167.801 2388.43 163.526C2404.96 159.136 2422.52 156.941 2441.12 156.941C2459.83 156.941 2477.4 159.136 2493.8 163.526C2510.32 167.801 2525.46 174.04 2539.21 182.243C2553.07 190.446 2565.49 200.498 2576.47 212.398C2587.45 224.183 2596.75 237.528 2604.37 252.432C2612 267.336 2617.83 283.685 2621.88 301.477C2625.92 319.27 2627.94 338.218 2627.94 358.321C2627.94 378.425 2625.92 397.373 2621.88 415.166C2617.83 432.958 2612 449.364 2604.37 464.384C2596.75 479.288 2587.45 492.633 2576.47 504.418C2565.49 516.202 2553.07 526.254 2539.21 534.573C2525.46 542.776 2510.32 549.015 2493.8 553.29C2477.4 557.68 2459.83 559.875 2441.12 559.875C2422.52 559.875 2404.96 557.68 2388.43 553.29C2371.91 549.015 2356.72 542.776 2342.85 534.573C2329.11 526.254 2316.74 516.202 2305.77 504.418C2294.79 492.633 2285.49 479.288 2277.86 464.384C2270.24 449.364 2264.4 432.958 2260.36 415.166C2256.32 397.373 2254.3 378.425 2254.3 358.321ZM2324.48 358.321C2324.48 379.696 2327.14 398.933 2332.46 416.032C2337.89 433.016 2345.63 447.516 2355.68 459.532C2365.85 471.432 2378.15 480.559 2392.59 486.914C2407.03 493.268 2423.27 496.446 2441.29 496.446C2459.32 496.446 2475.49 493.268 2489.82 486.914C2504.26 480.559 2516.51 471.432 2526.56 459.532C2536.61 447.516 2544.29 433.016 2549.61 416.032C2555.04 398.933 2557.75 379.696 2557.75 358.321C2557.75 336.947 2555.04 317.768 2549.61 300.784C2544.29 283.685 2536.61 269.185 2526.56 257.284C2516.51 245.384 2504.26 236.257 2489.82 229.902C2475.49 223.548 2459.32 220.37 2441.29 220.37C2423.27 220.37 2407.03 223.548 2392.59 229.902C2378.15 236.257 2365.85 245.384 2355.68 257.284C2345.63 269.185 2337.89 283.685 2332.46 300.784C2327.14 317.768 2324.48 336.947 2324.48 358.321ZM2744.75 549.477H2674.56V167.339H2744.75V289.346C2749.25 270.282 2755.67 253.241 2763.99 238.221C2772.42 223.086 2782.82 210.261 2795.18 199.747C2807.54 189.233 2821.81 181.203 2837.99 175.658C2854.28 170.112 2872.53 167.339 2892.75 167.339H2910.26V234.235H2892.92C2864.96 234.235 2841.51 236.834 2822.56 242.034C2803.61 247.117 2788.36 254.858 2776.81 265.257C2765.37 275.655 2757.17 288.768 2752.2 304.597C2747.23 320.31 2744.75 338.796 2744.75 360.054V549.477ZM3026.37 549.477H2956.18V167.339H3026.37V277.734C3030.99 258.902 3037.63 242.034 3046.3 227.129C3054.97 212.225 3065.36 199.574 3077.49 189.176C3089.63 178.777 3103.32 170.805 3118.57 165.259C3133.93 159.714 3150.51 156.941 3168.31 156.941C3190.03 156.941 3209.5 161.042 3226.71 169.245C3243.93 177.449 3258.48 189.291 3270.38 204.773C3282.4 220.139 3291.53 238.914 3297.77 261.097C3304.12 283.165 3307.3 308.063 3307.3 335.792V549.477H3237.11V335.792C3237.11 297.434 3228.96 268.607 3212.67 249.312C3196.38 230.018 3171.83 220.37 3139.02 220.37C3121.34 220.37 3105.51 223.143 3091.53 228.689C3077.67 234.119 3065.88 242.091 3056.18 252.605C3046.59 263.004 3039.19 275.828 3034 291.079C3028.91 306.214 3026.37 323.429 3026.37 342.724V549.477ZM3432.93 123.146H3359.28V36.4937H3432.93V123.146ZM3431.2 549.477H3361.01V167.339H3431.2V549.477ZM3531.12 226.263H3473.06V167.339H3531.12V158.674C3531.12 135.104 3534.07 114.308 3539.96 96.284C3545.85 78.2602 3554.52 63.1827 3565.96 51.0513C3577.51 38.8044 3591.78 29.5615 3608.76 23.3224C3625.75 17.0835 3645.39 13.964 3667.69 13.964C3686.86 13.964 3707.43 16.217 3729.38 20.7229V81.3797C3709.16 77.2204 3691.89 75.1407 3677.56 75.1407C3650.76 75.1407 3630.77 82.0729 3617.6 95.9373C3604.43 109.802 3597.84 130.714 3597.84 158.674V167.339H3729.56V226.263H3601.31V549.477H3531.12V226.263ZM4142.47 167.339L3984.24 573.566C3976.27 593.901 3966.97 611.463 3956.34 626.251C3945.83 641.04 3933.7 653.229 3919.95 662.819C3906.31 672.524 3891.01 679.687 3874.02 684.308C3857.15 688.93 3838.38 691.241 3817.7 691.241C3812.04 691.241 3806.55 691.067 3801.23 690.721C3795.92 690.374 3790.78 689.912 3785.81 689.334V627.984C3791.93 628.793 3797.59 629.371 3802.79 629.717C3808.11 630.064 3813.19 630.237 3818.04 630.237C3841.15 630.237 3859.98 625.731 3874.54 616.719C3889.1 607.708 3900.02 593.323 3907.3 573.566L3912.15 560.742L3760.51 167.339H3833.29L3951.66 485.527L4071.42 167.339H4142.47ZM4233.03 549.477H4144.65V455.892H4233.03V549.477Z" fill="#111111"/>
<defs>
<filter id="filter0_n_80_247" x="0" y="0" width="716.953" height="716.954" filterUnits="userSpaceOnUse" color-interpolation-filters="sRGB">
<feFlood flood-opacity="0" result="BackgroundImageFix"/>
<feBlend mode="normal" in="SourceGraphic" in2="BackgroundImageFix" result="shape"/>
<feTurbulence type="fractalNoise" baseFrequency="0.36780598759651184 0.36780598759651184" stitchTiles="stitch" numOctaves="3" result="noise" seed="9893" />
<feComponentTransfer in="noise" result="coloredNoise1">
<feFuncR type="linear" slope="2" intercept="-0.5" />
<feFuncG type="linear" slope="2" intercept="-0.5" />
<feFuncB type="linear" slope="2" intercept="-0.5" />
<feFuncA type="discrete" tableValues="0 0 0 0 0 0 0 0 0 1 1 1 1 1 1 1 1 1 1 1 1 1 1 1 1 1 1 1 1 1 1 1 1 1 1 1 1 1 1 1 1 1 0 0 0 0 0 0 0 0 0 0 0 0 0 0 0 0 0 0 0 0 0 0 0 0 0 0 0 0 0 0 0 0 0 0 0 0 0 0 0 0 0 0 0 0 0 0 0 0 0 0 0 0 0 0 0 0 0 0 "/>
</feComponentTransfer>
<feComposite operator="in" in2="shape" in="coloredNoise1" result="noise1Clipped" />
<feComponentTransfer in="noise1Clipped" result="color1">
<feFuncA type="table" tableValues="0 0.32" />
</feComponentTransfer>
<feMerge result="effect1_noise_80_247">
<feMergeNode in="shape" />
<feMergeNode in="color1" />
</feMerge>
</filter>
<linearGradient id="paint0_linear_80_247" x1="740.124" y1="-6.18207e-05" x2="93.6484" y2="607.204" gradientUnits="userSpaceOnUse">
<stop stop-color="#FDD801"/>
<stop offset="0.129808" stop-color="#FA6B28"/>
<stop offset="0.341346" stop-color="#891FB7"/>
<stop offset="0.692308" stop-color="#4701AC"/>
</linearGradient>
<linearGradient id="paint1_linear_80_247" x1="707.442" y1="-53.7161" x2="10.8999" y2="589.042" gradientUnits="userSpaceOnUse">
<stop stop-color="#6D45B2"/>
<stop offset="0.05" stop-color="#6D45B2"/>
<stop offset="0.12" stop-color="#6D45B2"/>
<stop offset="0.19" stop-color="#6D45B2"/>
<stop offset="0.26" stop-color="#6D45B2"/>
<stop offset="0.33" stop-color="#6D45B2"/>
<stop offset="0.4" stop-color="#6D45B2"/>
<stop offset="1" stop-color="#5433FF"/>
</linearGradient>
</defs>
</svg>
